<svg width="24" height="24" viewBox="0 0 24 24" fill="none" xmlns="http://www.w3.org/2000/svg">
<path d="M2.25 9.75001H4.5V15.75H3C2.80109 15.75 2.61032 15.829 2.46967 15.9697C2.32902 16.1103 2.25 16.3011 2.25 16.5C2.25 16.6989 2.32902 16.8897 2.46967 17.0303C2.61032 17.171 2.80109 17.25 3 17.25H21C21.1989 17.25 21.3897 17.171 21.5303 17.0303C21.671 16.8897 21.75 16.6989 21.75 16.5C21.75 16.3011 21.671 16.1103 21.5303 15.9697C21.3897 15.829 21.1989 15.75 21 15.75H19.5V9.75001H21.75C21.9132 9.74984 22.0719 9.69646 22.202 9.59796C22.3321 9.49945 22.4265 9.3612 22.4709 9.20418C22.5153 9.04716 22.5073 8.87993 22.4481 8.72787C22.3889 8.57581 22.2817 8.4472 22.1428 8.36157L12.3928 2.36157C12.2747 2.28893 12.1387 2.25047 12 2.25047C11.8613 2.25047 11.7253 2.28893 11.6072 2.36157L1.85719 8.36157C1.71828 8.4472 1.61108 8.57581 1.55187 8.72787C1.49266 8.87993 1.48466 9.04716 1.52908 9.20418C1.57351 9.3612 1.66793 9.49945 1.79803 9.59796C1.92814 9.69646 2.08681 9.74984 2.25 9.75001ZM6 9.75001H9V15.75H6V9.75001ZM13.5 9.75001V15.75H10.5V9.75001H13.5ZM18 15.75H15V9.75001H18V15.75ZM12 3.88032L19.1006 8.25001H4.89937L12 3.88032ZM23.25 19.5C23.25 19.6989 23.171 19.8897 23.0303 20.0303C22.8897 20.171 22.6989 20.25 22.5 20.25H1.5C1.30109 20.25 1.11032 20.171 0.96967 20.0303C0.829018 19.8897 0.75 19.6989 0.75 19.5C0.75 19.3011 0.829018 19.1103 0.96967 18.9697C1.11032 18.829 1.30109 18.75 1.5 18.75H22.5C22.6989 18.75 22.8897 18.829 23.0303 18.9697C23.171 19.1103 23.25 19.3011 23.25 19.5Z" fill="white" fill-opacity="0.25"/>
</svg>
