<svg width="24" height="24" viewBox="0 0 24 24" fill="none" xmlns="http://www.w3.org/2000/svg">
<path d="M15.5304 8.46939C15.6001 8.53904 15.6555 8.62176 15.6932 8.71281C15.7309 8.80386 15.7504 8.90145 15.7504 9.00001C15.7504 9.09857 15.7309 9.19617 15.6932 9.28722C15.6555 9.37827 15.6001 9.46098 15.5304 9.53064L9.5304 15.5306C9.46072 15.6003 9.378 15.6556 9.28695 15.6933C9.19591 15.731 9.09833 15.7504 8.99978 15.7504C8.90123 15.7504 8.80365 15.731 8.71261 15.6933C8.62156 15.6556 8.53884 15.6003 8.46915 15.5306C8.39947 15.461 8.3442 15.3782 8.30648 15.2872C8.26877 15.1961 8.24936 15.0986 8.24936 15C8.24936 14.9015 8.26877 14.8039 8.30648 14.7128C8.3442 14.6218 8.39947 14.5391 8.46915 14.4694L14.4692 8.46939C14.5388 8.39966 14.6215 8.34434 14.7126 8.30659C14.8036 8.26885 14.9012 8.24942 14.9998 8.24942C15.0983 8.24942 15.1959 8.26885 15.287 8.30659C15.378 8.34434 15.4607 8.39966 15.5304 8.46939ZM20.2123 3.78751C19.7248 3.29995 19.146 2.91319 18.509 2.64932C17.872 2.38545 17.1893 2.24963 16.4998 2.24963C15.8103 2.24963 15.1276 2.38545 14.4906 2.64932C13.8536 2.91319 13.2748 3.29995 12.7873 3.78751L9.96915 6.6047C9.82842 6.74543 9.74936 6.9363 9.74936 7.13533C9.74936 7.33435 9.82842 7.52522 9.96915 7.66595C10.1099 7.80668 10.3008 7.88574 10.4998 7.88574C10.6988 7.88574 10.8897 7.80668 11.0304 7.66595L13.8485 4.85345C14.5544 4.16312 15.5039 3.779 16.4912 3.78443C17.4785 3.78987 18.4238 4.18443 19.122 4.88249C19.8202 5.58055 20.2149 6.52579 20.2205 7.51306C20.2261 8.50034 19.8422 9.45 19.152 10.156L16.3329 12.9741C16.1922 13.1147 16.1131 13.3054 16.113 13.5044C16.1129 13.7033 16.1918 13.8941 16.3324 14.0349C16.473 14.1756 16.6638 14.2547 16.8627 14.2548C17.0617 14.2549 17.2525 14.1759 17.3932 14.0353L20.2123 11.2125C20.6998 10.725 21.0866 10.1462 21.3505 9.50922C21.6143 8.87223 21.7502 8.1895 21.7502 7.50001C21.7502 6.81053 21.6143 6.1278 21.3505 5.4908C21.0866 4.85381 20.6998 4.27503 20.2123 3.78751ZM12.9692 16.3331L10.151 19.1513C9.80423 19.5059 9.39053 19.7881 8.93389 19.9817C8.47725 20.1753 7.98674 20.2764 7.49075 20.2792C6.99477 20.2819 6.50318 20.1862 6.04443 19.9976C5.58569 19.8091 5.1689 19.5314 4.81822 19.1806C4.46753 18.8299 4.18991 18.4131 4.00143 17.9543C3.81294 17.4955 3.71734 17.0039 3.72016 16.5079C3.72298 16.0119 3.82416 15.5214 4.01785 15.0648C4.21154 14.6082 4.49388 14.1946 4.84853 13.8478L7.66572 11.0306C7.80645 10.8899 7.88551 10.699 7.88551 10.5C7.88551 10.301 7.80645 10.1101 7.66572 9.96939C7.52499 9.82866 7.33412 9.7496 7.13509 9.7496C6.93607 9.7496 6.7452 9.82866 6.60447 9.96939L3.78728 12.7875C2.80266 13.7721 2.24951 15.1076 2.24951 16.5C2.24951 17.8925 2.80266 19.2279 3.78728 20.2125C4.7719 21.1971 6.10732 21.7503 7.49978 21.7503C8.89224 21.7503 10.2277 21.1971 11.2123 20.2125L14.0304 17.3935C14.171 17.2527 14.25 17.0619 14.2499 16.863C14.2498 16.664 14.1707 16.4733 14.0299 16.3327C13.8892 16.1921 13.6984 16.1131 13.4994 16.1132C13.3005 16.1133 13.1098 16.1924 12.9692 16.3331Z" fill="white" fill-opacity="0.25"/>
</svg>
