<svg width="44" height="24" viewBox="0 0 44 24" fill="none" xmlns="http://www.w3.org/2000/svg">
<g clip-path="url(#clip0_3_117)">
<path d="M7.85502 2.28779C9.22943 0.843784 11.0475 0 13.1961 0C17.3715 0 20.1377 3.04458 20.6684 7.61145C20.8423 9.09895 20.8423 11.1867 20.8336 13.6049V23.4346H15.0924V16.7278C15.0924 16.7278 15.0837 10.9866 15.0489 9.90794C14.8924 5.23668 12.1261 2.29648 7.85502 2.28779C6.5589 3.6622 5.87169 5.32367 5.76731 7.87242C5.74991 8.22907 5.75861 9.49039 5.75861 11.1432C5.75861 12.0043 5.76731 12.9699 5.76731 13.979V23.4433H0.0260954V13.1178C0.0260954 12.7611 0.0173966 12.4045 0.0173966 12.0478C0.00869779 11.3258 -0.00869982 10.6038 0.0260954 9.88184C0.086987 8.68141 0.295758 7.49837 0.861181 6.40232C2.1399 3.89706 4.76694 2.27909 7.55926 2.27909C7.65495 2.27909 7.75063 2.28779 7.85502 2.28779Z" fill="#820AD1"/>
<path d="M43.4679 14.1182C43.5027 13.3962 43.494 12.6742 43.4766 11.9521C43.4679 11.5955 43.4679 11.2388 43.4679 10.8822V0.556718H37.7267V10.021C37.7267 11.0301 37.7267 11.9956 37.7354 12.8568C37.7441 14.5183 37.7441 15.7796 37.7267 16.1276C37.6223 18.6763 36.9351 20.3378 35.6477 21.7035C31.3766 21.7035 28.6017 18.7633 28.4538 14.0921C28.419 13.0221 28.4016 10.3516 28.4016 7.27219V0.548019L22.6604 0.556718V10.3864C22.6604 12.8046 22.6604 14.901 22.8257 16.3798C23.3563 20.9467 26.1225 23.9913 30.2979 23.9913C32.4378 23.9913 34.2646 23.1475 35.639 21.7035C35.7347 21.7035 35.8304 21.7122 35.9348 21.7122C38.7358 21.7122 41.3541 20.0942 42.6328 17.589C43.1983 16.4929 43.407 15.3186 43.4679 14.1182Z" fill="#820AD1"/>
</g>
<defs>
<clipPath id="clip0_3_117">
<rect width="43.494" height="24" fill="white"/>
</clipPath>
</defs>
</svg>
