<svg width="24" height="24" viewBox="0 0 24 24" fill="none" xmlns="http://www.w3.org/2000/svg">
<path d="M22.4999 12.75V18.75C22.4999 18.9489 22.4209 19.1397 22.2803 19.2803C22.1396 19.421 21.9488 19.5 21.7499 19.5H15.7499C15.551 19.5 15.3603 19.421 15.2196 19.2803C15.0789 19.1397 14.9999 18.9489 14.9999 18.75C14.9999 18.5511 15.0789 18.3603 15.2196 18.2197C15.3603 18.079 15.551 18 15.7499 18H19.9396L12.7499 10.8103L9.53055 14.0306C9.4609 14.1004 9.37818 14.1557 9.28713 14.1934C9.19609 14.2312 9.09849 14.2506 8.99993 14.2506C8.90137 14.2506 8.80377 14.2312 8.71272 14.1934C8.62168 14.1557 8.53896 14.1004 8.4693 14.0306L1.7193 7.28063C1.57857 7.1399 1.49951 6.94903 1.49951 6.75001C1.49951 6.55098 1.57857 6.36011 1.7193 6.21938C1.86003 6.07865 2.05091 5.99959 2.24993 5.99959C2.44895 5.99959 2.63982 6.07865 2.78055 6.21938L8.99993 12.4397L12.2193 9.21938C12.289 9.14965 12.3717 9.09433 12.4627 9.05659C12.5538 9.01884 12.6514 8.99941 12.7499 8.99941C12.8485 8.99941 12.9461 9.01884 13.0371 9.05659C13.1282 9.09433 13.2109 9.14965 13.2806 9.21938L20.9999 16.9397V12.75C20.9999 12.5511 21.0789 12.3603 21.2196 12.2197C21.3603 12.079 21.551 12 21.7499 12C21.9488 12 22.1396 12.079 22.2803 12.2197C22.4209 12.3603 22.4999 12.5511 22.4999 12.75Z" fill="#EB5B64"/>
</svg>
