<svg width="64" height="64" viewBox="0 0 64 64" fill="none" xmlns="http://www.w3.org/2000/svg">
<path d="M32 6C26.8577 6 21.8309 7.52487 17.5552 10.3818C13.2795 13.2387 9.94702 17.2994 7.97914 22.0502C6.01127 26.8011 5.49638 32.0288 6.49959 37.0723C7.50281 42.1159 9.97907 46.7486 13.6152 50.3848C17.2514 54.0209 21.8842 56.4972 26.9277 57.5004C31.9712 58.5036 37.1989 57.9887 41.9498 56.0209C46.7007 54.053 50.7613 50.7205 53.6182 46.4448C56.4751 42.1691 58 37.1423 58 32C57.9927 25.1066 55.2511 18.4976 50.3767 13.6233C45.5024 8.74889 38.8934 6.00728 32 6ZM32 54C27.6488 54 23.3953 52.7097 19.7775 50.2923C16.1596 47.8749 13.3398 44.439 11.6747 40.419C10.0095 36.3991 9.57386 31.9756 10.4227 27.708C11.2716 23.4404 13.3669 19.5204 16.4437 16.4437C19.5204 13.3669 23.4404 11.2716 27.708 10.4227C31.9756 9.57385 36.3991 10.0095 40.419 11.6747C44.439 13.3398 47.875 16.1596 50.2923 19.7775C52.7097 23.3953 54 27.6488 54 32C53.9934 37.8327 51.6734 43.4247 47.5491 47.549C43.4247 51.6734 37.8327 53.9934 32 54ZM30 34V20C30 19.4696 30.2107 18.9609 30.5858 18.5858C30.9609 18.2107 31.4696 18 32 18C32.5304 18 33.0392 18.2107 33.4142 18.5858C33.7893 18.9609 34 19.4696 34 20V34C34 34.5304 33.7893 35.0391 33.4142 35.4142C33.0392 35.7893 32.5304 36 32 36C31.4696 36 30.9609 35.7893 30.5858 35.4142C30.2107 35.0391 30 34.5304 30 34ZM35 43C35 43.5933 34.8241 44.1734 34.4944 44.6667C34.1648 45.1601 33.6962 45.5446 33.1481 45.7716C32.5999 45.9987 31.9967 46.0581 31.4147 45.9424C30.8328 45.8266 30.2982 45.5409 29.8787 45.1213C29.4591 44.7018 29.1734 44.1672 29.0577 43.5853C28.9419 43.0033 29.0013 42.4001 29.2284 41.852C29.4554 41.3038 29.84 40.8352 30.3333 40.5056C30.8266 40.1759 31.4067 40 32 40C32.7957 40 33.5587 40.3161 34.1213 40.8787C34.6839 41.4413 35 42.2043 35 43Z" fill="#242424"/>
</svg>
