<svg width="41" height="16" viewBox="0 0 41 16" fill="none" xmlns="http://www.w3.org/2000/svg">
<g clip-path="url(#clip0_2_37)">
<path d="M8 0C6.41775 0 4.87103 0.469192 3.55544 1.34824C2.23985 2.22729 1.21447 3.47672 0.608967 4.93853C0.00346625 6.40034 -0.15496 8.00887 0.153721 9.56072C0.462403 11.1126 1.22433 12.538 2.34315 13.6569C3.46197 14.7757 4.88743 15.5376 6.43928 15.8463C7.99113 16.155 9.59966 15.9965 11.0615 15.391C12.5233 14.7855 13.7727 13.7602 14.6518 12.4446C15.5308 11.129 16 9.58225 16 8C15.9978 5.87895 15.1542 3.84542 13.6544 2.34562C12.1546 0.845814 10.121 0.00223986 8 0ZM8 14.7692C6.66117 14.7692 5.35241 14.3722 4.23922 13.6284C3.12603 12.8846 2.2584 11.8274 1.74605 10.5905C1.2337 9.35356 1.09965 7.99249 1.36084 6.67939C1.62203 5.36629 2.26674 4.16012 3.21343 3.21343C4.16013 2.26674 5.36629 1.62203 6.67939 1.36084C7.99249 1.09965 9.35356 1.2337 10.5905 1.74605C11.8274 2.25839 12.8846 3.12602 13.6284 4.23922C14.3722 5.35241 14.7692 6.66117 14.7692 8C14.7672 9.79468 14.0534 11.5153 12.7843 12.7843C11.5153 14.0534 9.79469 14.7672 8 14.7692ZM11.0769 9.53846C11.0769 10.1097 10.85 10.6575 10.4461 11.0615C10.0422 11.4654 9.49431 11.6923 8.92308 11.6923H8.61539V12.3077C8.61539 12.4709 8.55055 12.6274 8.43514 12.7428C8.31974 12.8582 8.16321 12.9231 8 12.9231C7.83679 12.9231 7.68027 12.8582 7.56486 12.7428C7.44945 12.6274 7.38462 12.4709 7.38462 12.3077V11.6923H6.15385C5.99064 11.6923 5.83411 11.6275 5.71871 11.5121C5.6033 11.3967 5.53846 11.2401 5.53846 11.0769C5.53846 10.9137 5.6033 10.7572 5.71871 10.6418C5.83411 10.5264 5.99064 10.4615 6.15385 10.4615H8.92308C9.16789 10.4615 9.40268 10.3643 9.57579 10.1912C9.7489 10.0181 9.84615 9.78327 9.84615 9.53846C9.84615 9.29364 9.7489 9.05886 9.57579 8.88575C9.40268 8.71264 9.16789 8.61538 8.92308 8.61538H7.07692C6.50569 8.61538 5.95785 8.38846 5.55393 7.98454C5.15 7.58061 4.92308 7.03277 4.92308 6.46154C4.92308 5.8903 5.15 5.34246 5.55393 4.93854C5.95785 4.53461 6.50569 4.30769 7.07692 4.30769H7.38462V3.69231C7.38462 3.5291 7.44945 3.37257 7.56486 3.25716C7.68027 3.14176 7.83679 3.07692 8 3.07692C8.16321 3.07692 8.31974 3.14176 8.43514 3.25716C8.55055 3.37257 8.61539 3.5291 8.61539 3.69231V4.30769H9.84615C10.0094 4.30769 10.1659 4.37253 10.2813 4.48793C10.3967 4.60334 10.4615 4.75987 10.4615 4.92308C10.4615 5.08629 10.3967 5.24281 10.2813 5.35822C10.1659 5.47363 10.0094 5.53846 9.84615 5.53846H7.07692C6.83211 5.53846 6.59732 5.63571 6.42421 5.80882C6.2511 5.98193 6.15385 6.21672 6.15385 6.46154C6.15385 6.70635 6.2511 6.94114 6.42421 7.11425C6.59732 7.28736 6.83211 7.38461 7.07692 7.38461H8.92308C9.49431 7.38461 10.0422 7.61154 10.4461 8.01546C10.85 8.41938 11.0769 8.96722 11.0769 9.53846Z" fill="#0AE360"/>
<path d="M20.1222 3.72727V4.40909H18.1023V3.72727H20.1222ZM18.5646 7V3.49077C18.5646 3.25355 18.6108 3.05682 18.7031 2.90057C18.7969 2.74432 18.9247 2.62713 19.0866 2.54901C19.2486 2.47088 19.4325 2.43182 19.6385 2.43182C19.7777 2.43182 19.9048 2.44247 20.0199 2.46378C20.1364 2.48509 20.223 2.50426 20.2798 2.52131L20.1179 3.20312C20.0824 3.19176 20.0384 3.18111 19.9858 3.17116C19.9347 3.16122 19.8821 3.15625 19.8281 3.15625C19.6946 3.15625 19.6016 3.1875 19.549 3.25C19.4964 3.31108 19.4702 3.39702 19.4702 3.50781V7H18.5646ZM20.6767 7V3.72727H21.5843V7H20.6767ZM21.1326 3.3054C20.9977 3.3054 20.8819 3.26065 20.7853 3.17116C20.6902 3.08026 20.6426 2.97159 20.6426 2.84517C20.6426 2.72017 20.6902 2.61293 20.7853 2.52344C20.8819 2.43253 20.9977 2.38707 21.1326 2.38707C21.2676 2.38707 21.3826 2.43253 21.4778 2.52344C21.5744 2.61293 21.6227 2.72017 21.6227 2.84517C21.6227 2.97159 21.5744 3.08026 21.4778 3.17116C21.3826 3.26065 21.2676 3.3054 21.1326 3.3054ZM23.2191 5.10795V7H22.3114V3.72727H23.1765V4.30469H23.2148C23.2873 4.11435 23.4087 3.96378 23.5792 3.85298C23.7496 3.74077 23.9563 3.68466 24.1992 3.68466C24.4265 3.68466 24.6246 3.73438 24.7937 3.83381C24.9627 3.93324 25.0941 4.07528 25.1879 4.25994C25.2816 4.44318 25.3285 4.66193 25.3285 4.91619V7H24.4208V5.07812C24.4222 4.87784 24.3711 4.72159 24.2674 4.60938C24.1637 4.49574 24.021 4.43892 23.8391 4.43892C23.717 4.43892 23.609 4.4652 23.5153 4.51776C23.4229 4.57031 23.3505 4.64702 23.2979 4.74787C23.2468 4.8473 23.2205 4.96733 23.2191 5.10795ZM26.9771 7.06179C26.7683 7.06179 26.5822 7.02557 26.4189 6.95312C26.2555 6.87926 26.1262 6.7706 26.0311 6.62713C25.9373 6.48224 25.8904 6.30185 25.8904 6.08594C25.8904 5.90412 25.9238 5.75142 25.9906 5.62784C26.0574 5.50426 26.1483 5.40483 26.2633 5.32955C26.3784 5.25426 26.5091 5.19744 26.6554 5.15909C26.8031 5.12074 26.9579 5.09375 27.1199 5.07812C27.3102 5.05824 27.4636 5.03977 27.5801 5.02273C27.6966 5.00426 27.7811 4.97727 27.8336 4.94176C27.8862 4.90625 27.9125 4.85369 27.9125 4.78409V4.77131C27.9125 4.63636 27.8699 4.53196 27.7846 4.4581C27.7008 4.38423 27.5815 4.3473 27.4267 4.3473C27.2633 4.3473 27.1333 4.38352 27.0368 4.45597C26.9402 4.52699 26.8762 4.61648 26.845 4.72443L26.0055 4.65625C26.0481 4.45739 26.1319 4.28551 26.2569 4.14062C26.3819 3.99432 26.5431 3.8821 26.7406 3.80398C26.9395 3.72443 27.1696 3.68466 27.4309 3.68466C27.6127 3.68466 27.7868 3.70597 27.9529 3.74858C28.1206 3.79119 28.269 3.85724 28.3983 3.94673C28.5289 4.03622 28.6319 4.15128 28.7072 4.2919C28.7825 4.43111 28.8201 4.59801 28.8201 4.79261V7H27.9593V6.54616H27.9338C27.8812 6.64844 27.8109 6.73864 27.7228 6.81676C27.6348 6.89347 27.5289 6.95384 27.4054 6.99787C27.2818 7.04048 27.139 7.06179 26.9771 7.06179ZM27.237 6.43537C27.3706 6.43537 27.4885 6.40909 27.5907 6.35653C27.693 6.30256 27.7733 6.23011 27.8315 6.1392C27.8897 6.0483 27.9189 5.94531 27.9189 5.83026V5.48295C27.8904 5.50142 27.8514 5.51847 27.8017 5.53409C27.7534 5.5483 27.6987 5.56179 27.6376 5.57457C27.5765 5.58594 27.5154 5.59659 27.4544 5.60653C27.3933 5.61506 27.3379 5.62287 27.2882 5.62997C27.1816 5.6456 27.0886 5.67045 27.0091 5.70455C26.9295 5.73864 26.8677 5.7848 26.8237 5.84304C26.7797 5.89986 26.7576 5.97088 26.7576 6.05611C26.7576 6.17969 26.8024 6.27415 26.8919 6.33949C26.9828 6.40341 27.0978 6.43537 27.237 6.43537ZM30.432 5.10795V7H29.5243V3.72727H30.3894V4.30469H30.4277C30.5002 4.11435 30.6216 3.96378 30.7921 3.85298C30.9625 3.74077 31.1692 3.68466 31.4121 3.68466C31.6394 3.68466 31.8375 3.73438 32.0066 3.83381C32.1756 3.93324 32.307 4.07528 32.4007 4.25994C32.4945 4.44318 32.5414 4.66193 32.5414 4.91619V7H31.6337V5.07812C31.6351 4.87784 31.584 4.72159 31.4803 4.60938C31.3766 4.49574 31.2338 4.43892 31.052 4.43892C30.9299 4.43892 30.8219 4.4652 30.7282 4.51776C30.6358 4.57031 30.5634 4.64702 30.5108 4.74787C30.4597 4.8473 30.4334 4.96733 30.432 5.10795ZM34.7354 7.06392C34.4002 7.06392 34.1119 6.9929 33.8704 6.85085C33.6303 6.70739 33.4457 6.50852 33.3164 6.25426C33.1886 6 33.1246 5.70739 33.1246 5.37642C33.1246 5.04119 33.1893 4.74716 33.3185 4.49432C33.4492 4.24006 33.6346 4.0419 33.8746 3.89986C34.1147 3.75639 34.4002 3.68466 34.7312 3.68466C35.0167 3.68466 35.2667 3.73651 35.4812 3.8402C35.6957 3.94389 35.8654 4.08949 35.9904 4.27699C36.1154 4.46449 36.1843 4.68466 36.1971 4.9375H35.3406C35.3164 4.77415 35.2525 4.64276 35.1488 4.54332C35.0465 4.44247 34.9123 4.39205 34.7461 4.39205C34.6055 4.39205 34.4826 4.4304 34.3775 4.5071C34.2738 4.58239 34.1928 4.69247 34.1346 4.83736C34.0763 4.98224 34.0472 5.15767 34.0472 5.36364C34.0472 5.57244 34.0756 5.75 34.1325 5.89631C34.1907 6.04261 34.2724 6.15412 34.3775 6.23082C34.4826 6.30753 34.6055 6.34588 34.7461 6.34588C34.8498 6.34588 34.9428 6.32457 35.0252 6.28196C35.109 6.23935 35.1779 6.17756 35.2319 6.09659C35.2873 6.0142 35.3235 5.91548 35.3406 5.80043H36.1971C36.1829 6.05043 36.1147 6.2706 35.9925 6.46094C35.8718 6.64986 35.7049 6.79759 35.4918 6.90412C35.2788 7.01065 35.0266 7.06392 34.7354 7.06392ZM38.2697 7.06392C37.9331 7.06392 37.6433 6.99574 37.4004 6.85938C37.1589 6.72159 36.9728 6.52699 36.8422 6.27557C36.7115 6.02273 36.6461 5.72372 36.6461 5.37855C36.6461 5.0419 36.7115 4.74645 36.8422 4.49219C36.9728 4.23793 37.1568 4.03977 37.394 3.89773C37.6326 3.75568 37.9125 3.68466 38.2335 3.68466C38.4494 3.68466 38.6504 3.71946 38.8365 3.78906C39.024 3.85724 39.1873 3.96023 39.3265 4.09801C39.4672 4.2358 39.5765 4.40909 39.6547 4.6179C39.7328 4.82528 39.7718 5.06818 39.7718 5.34659V5.59588H37.0083V5.03338H38.9174C38.9174 4.9027 38.889 4.78693 38.8322 4.68608C38.7754 4.58523 38.6966 4.50639 38.5957 4.44957C38.4963 4.39134 38.3805 4.36222 38.2484 4.36222C38.1106 4.36222 37.9885 4.39418 37.8819 4.4581C37.7768 4.5206 37.6944 4.60511 37.6348 4.71165C37.5751 4.81676 37.5446 4.93395 37.5431 5.06321V5.59801C37.5431 5.75994 37.573 5.89986 37.6326 6.01776C37.6937 6.13565 37.7797 6.22656 37.8904 6.29048C38.0012 6.3544 38.1326 6.38636 38.2846 6.38636C38.3855 6.38636 38.4778 6.37216 38.5616 6.34375C38.6454 6.31534 38.7172 6.27273 38.7768 6.21591C38.8365 6.15909 38.8819 6.08949 38.9132 6.0071L39.7527 6.0625C39.71 6.2642 39.6227 6.44034 39.4906 6.59091C39.3599 6.74006 39.1909 6.85653 38.9835 6.94034C38.7775 7.02273 38.5396 7.06392 38.2697 7.06392Z" fill="white"/>
<path d="M19.2955 13.0618C19.0866 13.0618 18.9006 13.0256 18.7372 12.9531C18.5739 12.8793 18.4446 12.7706 18.3494 12.6271C18.2557 12.4822 18.2088 12.3018 18.2088 12.0859C18.2088 11.9041 18.2422 11.7514 18.3089 11.6278C18.3757 11.5043 18.4666 11.4048 18.5817 11.3295C18.6967 11.2543 18.8274 11.1974 18.9737 11.1591C19.1214 11.1207 19.2763 11.0938 19.4382 11.0781C19.6286 11.0582 19.782 11.0398 19.8984 11.0227C20.0149 11.0043 20.0994 10.9773 20.152 10.9418C20.2045 10.9062 20.2308 10.8537 20.2308 10.7841V10.7713C20.2308 10.6364 20.1882 10.532 20.103 10.4581C20.0192 10.3842 19.8999 10.3473 19.745 10.3473C19.5817 10.3473 19.4517 10.3835 19.3551 10.456C19.2585 10.527 19.1946 10.6165 19.1634 10.7244L18.3239 10.6562C18.3665 10.4574 18.4503 10.2855 18.5753 10.1406C18.7003 9.99432 18.8615 9.8821 19.0589 9.80398C19.2578 9.72443 19.4879 9.68466 19.7493 9.68466C19.9311 9.68466 20.1051 9.70597 20.2713 9.74858C20.4389 9.79119 20.5874 9.85724 20.7166 9.94673C20.8473 10.0362 20.9503 10.1513 21.0256 10.2919C21.1009 10.4311 21.1385 10.598 21.1385 10.7926V13H20.2777V12.5462H20.2521C20.1996 12.6484 20.1293 12.7386 20.0412 12.8168C19.9531 12.8935 19.8473 12.9538 19.7237 12.9979C19.6001 13.0405 19.4574 13.0618 19.2955 13.0618ZM19.5554 12.4354C19.6889 12.4354 19.8068 12.4091 19.9091 12.3565C20.0114 12.3026 20.0916 12.2301 20.1499 12.1392C20.2081 12.0483 20.2372 11.9453 20.2372 11.8303V11.483C20.2088 11.5014 20.1697 11.5185 20.12 11.5341C20.0717 11.5483 20.017 11.5618 19.956 11.5746C19.8949 11.5859 19.8338 11.5966 19.7727 11.6065C19.7116 11.6151 19.6562 11.6229 19.6065 11.63C19.5 11.6456 19.407 11.6705 19.3274 11.7045C19.2479 11.7386 19.1861 11.7848 19.142 11.843C19.098 11.8999 19.076 11.9709 19.076 12.0561C19.076 12.1797 19.1207 12.2741 19.2102 12.3395C19.3011 12.4034 19.4162 12.4354 19.5554 12.4354ZM21.8427 14.2273V9.72727H22.7376V10.277H22.7781C22.8178 10.1889 22.8754 10.0994 22.9506 10.0085C23.0273 9.91619 23.1268 9.83949 23.2489 9.77841C23.3725 9.71591 23.5259 9.68466 23.7092 9.68466C23.9478 9.68466 24.168 9.74716 24.3697 9.87216C24.5714 9.99574 24.7326 10.1825 24.8533 10.4325C24.9741 10.6811 25.0344 10.9929 25.0344 11.3679C25.0344 11.733 24.9755 12.0412 24.8576 12.2926C24.7411 12.5426 24.582 12.7322 24.3803 12.8615C24.18 12.9893 23.9556 13.0533 23.707 13.0533C23.5309 13.0533 23.381 13.0241 23.2575 12.9659C23.1353 12.9077 23.0352 12.8345 22.957 12.7464C22.8789 12.657 22.8192 12.5668 22.7781 12.4759H22.7504V14.2273H21.8427ZM22.7312 11.3636C22.7312 11.5582 22.7582 11.728 22.8121 11.8729C22.8661 12.0178 22.9442 12.1307 23.0465 12.2116C23.1488 12.2912 23.2731 12.331 23.4194 12.331C23.5671 12.331 23.6921 12.2905 23.7944 12.2095C23.8967 12.1271 23.9741 12.0135 24.0266 11.8686C24.0806 11.7223 24.1076 11.554 24.1076 11.3636C24.1076 11.1747 24.0813 11.0085 24.0288 10.8651C23.9762 10.7216 23.8988 10.6094 23.7965 10.5284C23.6942 10.4474 23.5685 10.407 23.4194 10.407C23.2717 10.407 23.1467 10.446 23.0444 10.5241C22.9435 10.6023 22.8661 10.7131 22.8121 10.8565C22.7582 11 22.7312 11.169 22.7312 11.3636ZM25.6396 14.2273V9.72727H26.5344V10.277H26.5749C26.6147 10.1889 26.6722 10.0994 26.7475 10.0085C26.8242 9.91619 26.9237 9.83949 27.0458 9.77841C27.1694 9.71591 27.3228 9.68466 27.506 9.68466C27.7447 9.68466 27.9648 9.74716 28.1665 9.87216C28.3683 9.99574 28.5295 10.1825 28.6502 10.4325C28.771 10.6811 28.8313 10.9929 28.8313 11.3679C28.8313 11.733 28.7724 12.0412 28.6545 12.2926C28.538 12.5426 28.3789 12.7322 28.1772 12.8615C27.9769 12.9893 27.7525 13.0533 27.5039 13.0533C27.3278 13.0533 27.1779 13.0241 27.0543 12.9659C26.9322 12.9077 26.832 12.8345 26.7539 12.7464C26.6758 12.657 26.6161 12.5668 26.5749 12.4759H26.5472V14.2273H25.6396ZM26.5281 11.3636C26.5281 11.5582 26.555 11.728 26.609 11.8729C26.663 12.0178 26.7411 12.1307 26.8434 12.2116C26.9457 12.2912 27.07 12.331 27.2163 12.331C27.364 12.331 27.489 12.2905 27.5913 12.2095C27.6935 12.1271 27.771 12.0135 27.8235 11.8686C27.8775 11.7223 27.9045 11.554 27.9045 11.3636C27.9045 11.1747 27.8782 11.0085 27.8256 10.8651C27.7731 10.7216 27.6957 10.6094 27.5934 10.5284C27.4911 10.4474 27.3654 10.407 27.2163 10.407C27.0685 10.407 26.9435 10.446 26.8413 10.5241C26.7404 10.6023 26.663 10.7131 26.609 10.8565C26.555 11 26.5281 11.169 26.5281 11.3636Z" fill="white"/>
<path d="M29.967 13.0554C29.8263 13.0554 29.7056 13.0057 29.6048 12.9062C29.5053 12.8054 29.4556 12.6847 29.4556 12.544C29.4556 12.4048 29.5053 12.2855 29.6048 12.1861C29.7056 12.0866 29.8263 12.0369 29.967 12.0369C30.1033 12.0369 30.2227 12.0866 30.3249 12.1861C30.4272 12.2855 30.4783 12.4048 30.4783 12.544C30.4783 12.6378 30.4542 12.7237 30.4059 12.8018C30.359 12.8786 30.2972 12.9403 30.2205 12.9872C30.1438 13.0327 30.0593 13.0554 29.967 13.0554ZM31.2235 9.72727H32.1312V13.1619C32.1312 13.4148 32.0815 13.6193 31.9821 13.7756C31.8826 13.9318 31.7399 14.0462 31.5538 14.1186C31.3691 14.1911 31.1483 14.2273 30.8912 14.2273C30.8599 14.2273 30.8301 14.2266 30.8017 14.2251C30.7718 14.2251 30.7406 14.2244 30.7079 14.223V13.5135C30.7321 13.5149 30.7534 13.5156 30.7718 13.5156C30.7889 13.517 30.8074 13.5178 30.8272 13.5178C30.9735 13.5178 31.0758 13.4865 31.1341 13.424C31.1937 13.3629 31.2235 13.2706 31.2235 13.147V9.72727ZM31.6752 9.3054C31.5417 9.3054 31.4267 9.26065 31.3301 9.17116C31.2335 9.08026 31.1852 8.97159 31.1852 8.84517C31.1852 8.72017 31.2335 8.61293 31.3301 8.52344C31.4267 8.43253 31.5417 8.38707 31.6752 8.38707C31.8116 8.38707 31.9274 8.43253 32.0225 8.52344C32.1191 8.61293 32.1674 8.72017 32.1674 8.84517C32.1674 8.97159 32.1191 9.08026 32.0225 9.17116C31.9274 9.26065 31.8116 9.3054 31.6752 9.3054ZM35.5813 10.6605L34.7504 10.7116C34.7362 10.6406 34.7056 10.5767 34.6587 10.5199C34.6119 10.4616 34.5501 10.4155 34.4734 10.3814C34.3981 10.3459 34.3079 10.3281 34.2028 10.3281C34.0621 10.3281 33.9435 10.358 33.8469 10.4176C33.7504 10.4759 33.7021 10.554 33.7021 10.652C33.7021 10.7301 33.7333 10.7962 33.7958 10.8501C33.8583 10.9041 33.9656 10.9474 34.1175 10.9801L34.7099 11.0994C35.0281 11.1648 35.2653 11.2699 35.4215 11.4148C35.5778 11.5597 35.6559 11.75 35.6559 11.9858C35.6559 12.2003 35.5927 12.3885 35.4663 12.5504C35.3413 12.7124 35.1694 12.8388 34.9506 12.9297C34.7333 13.0192 34.4826 13.0639 34.1985 13.0639C33.7653 13.0639 33.4201 12.9737 33.163 12.7933C32.9073 12.6115 32.7575 12.3643 32.7134 12.0518L33.6062 12.005C33.6332 12.1371 33.6985 12.2379 33.8022 12.3075C33.9059 12.3757 34.0387 12.4098 34.2006 12.4098C34.3597 12.4098 34.4876 12.3793 34.5842 12.3182C34.6822 12.2557 34.7319 12.1754 34.7333 12.0774C34.7319 11.995 34.6971 11.9276 34.6289 11.875C34.5607 11.821 34.4556 11.7798 34.3136 11.7514L33.7468 11.6385C33.4272 11.5746 33.1893 11.4638 33.033 11.3061C32.8782 11.1484 32.8008 10.9474 32.8008 10.7031C32.8008 10.4929 32.8576 10.3118 32.9712 10.1598C33.0863 10.0078 33.2475 9.89062 33.4549 9.80824C33.6637 9.72585 33.908 9.68466 34.1879 9.68466C34.6012 9.68466 34.9265 9.77202 35.1637 9.94673C35.4023 10.1214 35.5415 10.3594 35.5813 10.6605Z" fill="#0AE360"/>
</g>
<defs>
<clipPath id="clip0_2_37">
<rect width="41" height="16" fill="white"/>
</clipPath>
</defs>
</svg>
